<svg xmlns="http://www.w3.org/2000/svg" width="980" height="560" viewBox="0 0 980 560">
<rect width="100%" height="100%" fill="#ffffff"/>
<text x="490.0" y="34" text-anchor="middle" font-family="Times New Roman, serif" font-size="22" font-weight="bold">Cyber999 Fraud Categories, Q2 2025</text>
<text x="490.0" y="58" text-anchor="middle" font-family="Times New Roman, serif" font-size="14">Source family: MyCERT/Cyber999 handled incidents</text>
<line x1="96" y1="434" x2="940" y2="434" stroke="#222"/>
<line x1="96" y1="80" x2="96" y2="434" stroke="#222"/>
<line x1="96" y1="434.0" x2="940" y2="434.0" stroke="#e5e8ef"/>
<text x="84" y="438.0" text-anchor="end" font-family="Times New Roman, serif" font-size="13">0</text>
<line x1="96" y1="363.2" x2="940" y2="363.2" stroke="#e5e8ef"/>
<text x="84" y="367.2" text-anchor="end" font-family="Times New Roman, serif" font-size="13">240</text>
<line x1="96" y1="292.4" x2="940" y2="292.4" stroke="#e5e8ef"/>
<text x="84" y="296.4" text-anchor="end" font-family="Times New Roman, serif" font-size="13">480</text>
<line x1="96" y1="221.6" x2="940" y2="221.6" stroke="#e5e8ef"/>
<text x="84" y="225.6" text-anchor="end" font-family="Times New Roman, serif" font-size="13">720</text>
<line x1="96" y1="150.8" x2="940" y2="150.8" stroke="#e5e8ef"/>
<text x="84" y="154.8" text-anchor="end" font-family="Times New Roman, serif" font-size="13">960</text>
<line x1="96" y1="80.0" x2="940" y2="80.0" stroke="#e5e8ef"/>
<text x="84" y="84.0" text-anchor="end" font-family="Times New Roman, serif" font-size="13">1200</text>
<rect x="96.0" y="101.5" width="105.1" height="332.5" fill="#2e6f9e"/>
<text x="148.6" y="93.5" text-anchor="middle" font-family="Times New Roman, serif" font-size="13">1127</text>
<text x="148.6" y="476" text-anchor="middle" font-family="Times New Roman, serif" font-size="13">Phishing</text>
<rect x="219.1" y="333.4" width="105.1" height="100.6" fill="#2e6f9e"/>
<text x="271.7" y="325.4" text-anchor="middle" font-family="Times New Roman, serif" font-size="13">341</text>
<text x="271.7" y="476" text-anchor="middle" font-family="Times New Roman, serif" font-size="13">Impersonatio</text>
<text x="271.7" y="491" text-anchor="middle" font-family="Times New Roman, serif" font-size="13">n</text>
<rect x="342.3" y="417.5" width="105.1" height="16.5" fill="#2e6f9e"/>
<text x="394.9" y="409.5" text-anchor="middle" font-family="Times New Roman, serif" font-size="13">56</text>
<text x="394.9" y="476" text-anchor="middle" font-family="Times New Roman, serif" font-size="13">Bogus email</text>
<rect x="465.4" y="422.2" width="105.1" height="11.8" fill="#2e6f9e"/>
<text x="518.0" y="414.2" text-anchor="middle" font-family="Times New Roman, serif" font-size="13">40</text>
<text x="518.0" y="476" text-anchor="middle" font-family="Times New Roman, serif" font-size="13">Fraud</text>
<text x="518.0" y="491" text-anchor="middle" font-family="Times New Roman, serif" font-size="13">website</text>
<rect x="588.6" y="417.2" width="105.1" height="16.8" fill="#2e6f9e"/>
<text x="641.1" y="409.2" text-anchor="middle" font-family="Times New Roman, serif" font-size="13">57</text>
<text x="641.1" y="476" text-anchor="middle" font-family="Times New Roman, serif" font-size="13">Job scam</text>
<rect x="711.7" y="433.1" width="105.1" height="0.9" fill="#2e6f9e"/>
<text x="764.3" y="425.1" text-anchor="middle" font-family="Times New Roman, serif" font-size="13">3</text>
<text x="764.3" y="476" text-anchor="middle" font-family="Times New Roman, serif" font-size="13">BEC</text>
<rect x="834.9" y="431.3" width="105.1" height="2.7" fill="#2e6f9e"/>
<text x="887.4" y="423.3" text-anchor="middle" font-family="Times New Roman, serif" font-size="13">9</text>
<text x="887.4" y="476" text-anchor="middle" font-family="Times New Roman, serif" font-size="13">Love/parcel</text>
</svg>