<svg xmlns="http://www.w3.org/2000/svg" width="1180" height="640" viewBox="0 0 1180 640">
  <rect width="1180" height="640" fill="#ffffff"/>
  <style>
    .axis{stroke:#374151;stroke-width:2}
    .grid{stroke:#e5e7eb;stroke-width:1}
    .total{fill:#dbeafe;stroke:#2563eb;stroke-width:1}
    .fraud{fill:#fed7aa;stroke:#f97316;stroke-width:1}
    .txt{font-family:Arial,sans-serif;font-size:18px;fill:#111827}
    .title{font-family:Arial,sans-serif;font-size:26px;fill:#111827;font-weight:700}
  </style>
  <text x="590" y="42" text-anchor="middle" class="title">Cyber999 Total Incidents and Fraud Incidents by Quarter</text>
  <line x1="90" y1="540" x2="1090" y2="540" class="axis"/>
  <line x1="90" y1="90" x2="90" y2="540" class="axis"/>
  <line x1="90" y1="430" x2="1090" y2="430" class="grid"/>
  <line x1="90" y1="320" x2="1090" y2="320" class="grid"/>
  <line x1="90" y1="210" x2="1090" y2="210" class="grid"/>
  <line x1="90" y1="100" x2="1090" y2="100" class="grid"/>
  <text x="52" y="545" class="txt">0</text>
  <text x="35" y="435" class="txt">500</text>
  <text x="25" y="325" class="txt">1000</text>
  <text x="25" y="215" class="txt">1500</text>
  <text x="25" y="105" class="txt">2000</text>
  <rect x="140" y="214" width="46" height="326" class="total"/><rect x="192" y="332" width="46" height="208" class="fraud"/>
  <rect x="300" y="199" width="46" height="341" class="total"/><rect x="352" y="296" width="46" height="244" class="fraud"/>
  <rect x="460" y="176" width="46" height="364" class="total"/><rect x="512" y="292" width="46" height="248" class="fraud"/>
  <rect x="620" y="87" width="46" height="453" class="total"/><rect x="672" y="181" width="46" height="359" class="fraud"/>
  <rect x="780" y="96" width="46" height="444" class="total"/><rect x="832" y="205" width="46" height="335" class="fraud"/>
  <rect x="940" y="126" width="46" height="414" class="total"/><rect x="992" y="216" width="46" height="324" class="fraud"/>
  <text x="190" y="575" text-anchor="middle" class="txt">2024 Q2</text>
  <text x="350" y="575" text-anchor="middle" class="txt">2024 Q4</text>
  <text x="510" y="575" text-anchor="middle" class="txt">2025 Q1</text>
  <text x="670" y="575" text-anchor="middle" class="txt">2025 Q2</text>
  <text x="830" y="575" text-anchor="middle" class="txt">2025 Q3</text>
  <text x="990" y="575" text-anchor="middle" class="txt">2025 Q4</text>
  <rect x="810" y="72" width="20" height="20" class="total"/><text x="838" y="89" class="txt">Total incidents</text>
  <rect x="970" y="72" width="20" height="20" class="fraud"/><text x="998" y="89" class="txt">Fraud incidents</text>
</svg>
