<svg xmlns="http://www.w3.org/2000/svg" width="1180" height="640" viewBox="0 0 1180 640">
  <rect width="1180" height="640" fill="#ffffff"/>
  <style>
    .bar{fill:#91c7b1;stroke:#2f6f5e;stroke-width:1}
    .txt{font-family:Arial,sans-serif;font-size:18px;fill:#111827}
    .title{font-family:Arial,sans-serif;font-size:26px;fill:#111827;font-weight:700}
    .axis{stroke:#374151;stroke-width:2}
  </style>
  <text x="590" y="45" text-anchor="middle" class="title">Cyber999 Fraud Subcategories in Q2 2025</text>
  <line x1="300" y1="530" x2="1080" y2="530" class="axis"/>
  <line x1="300" y1="110" x2="300" y2="530" class="axis"/>
  <text x="285" y="160" text-anchor="end" class="txt">Phishing</text>
  <rect x="300" y="132" width="676" height="42" class="bar"/><text x="990" y="160" class="txt">1127</text>
  <text x="285" y="230" text-anchor="end" class="txt">Impersonation/Spoofing</text>
  <rect x="300" y="202" width="205" height="42" class="bar"/><text x="520" y="230" class="txt">341</text>
  <text x="285" y="300" text-anchor="end" class="txt">Job scam</text>
  <rect x="300" y="272" width="34" height="42" class="bar"/><text x="350" y="300" class="txt">57</text>
  <text x="285" y="370" text-anchor="end" class="txt">Bogus email</text>
  <rect x="300" y="342" width="34" height="42" class="bar"/><text x="350" y="370" class="txt">56</text>
  <text x="285" y="440" text-anchor="end" class="txt">Fraudulent website</text>
  <rect x="300" y="412" width="24" height="42" class="bar"/><text x="340" y="440" class="txt">40</text>
  <text x="285" y="510" text-anchor="end" class="txt">Other listed fraud</text>
  <rect x="300" y="482" width="7" height="42" class="bar"/><text x="323" y="510" class="txt">12</text>
</svg>
